<svg width="30" height="30" viewBox="0 0 30 30" fill="none" xmlns="http://www.w3.org/2000/svg">
<path d="M8.46875 10.2276C10.1753 9.76085 14.2068 8.54454 15.9888 7.03414L15.9869 7.03215C16.2548 6.80504 16.6688 6.82409 16.9116 7.07468C17.0209 7.1872 17.0814 7.33385 17.0812 7.4859V21.9929C17.0812 22.3311 16.788 22.6053 16.4265 22.6053C16.2386 22.6053 16.0691 22.5312 15.9497 22.4125C14.1488 20.9171 10.1631 19.7147 8.46875 19.2512V10.2276ZM7.76746 19.0665H4.50913C3.26847 19.0665 2.14101 18.5922 1.32405 17.828C0.507108 17.0637 0 16.0091 0 14.8485V14.6303C0 13.4697 0.507108 12.4151 1.32405 11.6508C2.14099 10.8866 3.26847 10.4123 4.50913 10.4123H7.76748V19.0665L7.76746 19.0665Z" fill="#F7F7F7"/>
<path d="M17.7363 17.3245C18.1378 17.1852 18.498 16.9664 18.795 16.6885C19.3284 16.1896 19.6583 15.5004 19.6583 14.7392C19.6583 13.9779 19.3284 13.2887 18.795 12.7899C18.498 12.512 18.1378 12.2932 17.7363 12.1538V17.3245V17.3245Z" fill="#F7F7F7"/>
<path d="M3.8431 17.842H6.35727C6.71878 17.842 7.01189 18.1162 7.01189 18.4544V24.4725C7.01189 24.8107 6.71878 25.0849 6.35727 25.0849H3.8431C3.48159 25.0849 3.18848 24.8107 3.18848 24.4725V18.4544C3.18848 18.1162 3.48159 17.842 3.8431 17.842Z" fill="#F7F7F7"/>
<path d="M26.2361 1.25171L28.651 5.16443L28.2272 5.39406L28.6524 5.16443C28.788 5.3841 28.7075 5.66499 28.4727 5.79181C28.4595 5.79891 28.446 5.80544 28.4322 5.81137L21.2639 9.68278L21.265 9.6845C21.0301 9.81132 20.7299 9.73607 20.5943 9.5164C20.5867 9.50408 20.5797 9.49144 20.5734 9.47853L18.1816 5.60333L18.4394 5.63678L18.4397 5.63575L23.3538 6.27343C23.7338 6.32272 24.1112 6.14782 24.2584 5.80876L24.3186 5.67014L24.3182 5.66954L26.233 1.25896L26.2361 1.25171Z" fill="#F7F7F7"/>
<path d="M25.9291 1.1441L23.9541 5.69329L23.9545 5.69386C23.8637 5.90321 23.6265 6.01585 23.3982 5.97051L18.2091 5.29714L18.2087 5.29818C17.9402 5.26333 17.7526 5.03138 17.7899 4.78016C17.8132 4.62295 17.919 4.49539 18.0608 4.43051L25.2384 0.554086L25.4839 0.950548L25.2384 0.552817C25.4732 0.425997 25.7735 0.501253 25.9091 0.72092C25.9921 0.855504 25.9941 1.01306 25.9292 1.14408L25.9291 1.1441Z" fill="#F7F7F7"/>
<path fill-rule="evenodd" clip-rule="evenodd" d="M29.5091 11.7144H21.1863C20.9151 11.7144 20.6953 11.92 20.6953 12.1736V17.3049C20.6953 17.5585 20.9152 17.7642 21.1863 17.7642H29.5091C29.7802 17.7642 30 17.5585 30 17.3049V12.1736C30 11.92 29.7802 11.7144 29.5091 11.7144ZM23.9119 13.49C23.9119 13.2364 24.1317 13.0307 24.4028 13.0307C24.5146 13.0306 24.623 13.0662 24.71 13.1318L26.5745 14.3643L26.5759 14.3642C26.7974 14.5105 26.85 14.7972 26.6936 15.0043C26.6552 15.0552 26.6061 15.0983 26.5493 15.1308L24.6856 16.3629L24.6862 16.3636C24.4647 16.5099 24.1583 16.4607 24.0019 16.2535C23.9427 16.1754 23.9112 16.0819 23.9119 15.9861V13.49Z" fill="#F7F7F7"/>
<path fill-rule="evenodd" clip-rule="evenodd" d="M28.4425 24.2626L21.2644 20.3859V20.3846C21.0296 20.2578 20.7293 20.333 20.5937 20.5527C20.5881 20.5619 20.5829 20.5711 20.578 20.5804L17.8524 24.9965H17.851C17.7154 25.2162 17.7959 25.4971 18.0307 25.6239C18.044 25.6311 18.0575 25.6376 18.0712 25.6435L25.2395 29.5149L25.2384 29.5166C25.4733 29.6434 25.7735 29.5682 25.9091 29.3485C25.9168 29.3361 25.9237 29.3234 25.93 29.3106L28.65 24.9037L28.6518 24.9047C28.7874 24.685 28.7069 24.4041 28.4721 24.2773C28.4623 24.272 28.4525 24.2671 28.4425 24.2625V24.2626ZM25.247 24.9325C25.0129 24.8057 24.933 24.5254 25.0686 24.3064C25.2042 24.0874 25.5038 24.0127 25.7379 24.1395L26.7022 24.6603C26.9362 24.7871 27.0161 25.0675 26.8805 25.2864C26.7449 25.5054 26.4453 25.5801 26.2112 25.4533L25.247 24.9325ZM23.2514 23.5582C23.6624 23.5582 24.0345 23.7141 24.3039 23.9661C24.5732 24.2181 24.7399 24.5662 24.7399 24.9506C24.7399 25.335 24.5732 25.6831 24.3039 25.9351C24.0345 26.1871 23.6624 26.343 23.2514 26.343C22.8405 26.343 22.4683 26.1871 22.1989 25.9351C21.9296 25.6831 21.763 25.335 21.763 24.9506C21.763 24.5662 21.9296 24.2181 22.1989 23.9661C22.4683 23.7141 22.8405 23.5582 23.2514 23.5582Z" fill="#F7F7F7"/>
</svg>
